<mxfile host="app.diagrams.net" modified="2022-06-04T03:48:36.881Z" agent="5.0 (Windows NT 10.0; Win64; x64) AppleWebKit/537.36 (KHTML, like Gecko) Chrome/102.0.5005.63 Safari/537.36" etag="mi210z9LyyDRHexWSX36" version="19.0.0" type="github">
  <diagram id="prtHgNgQTEPvFCAcTncT" name="Page-1">
    <mxGraphModel dx="1038" dy="547" grid="1" gridSize="10" guides="1" tooltips="1" connect="1" arrows="1" fold="1" page="1" pageScale="1" pageWidth="827" pageHeight="1169" math="0" shadow="0">
      <root>
        <mxCell id="0" />
        <mxCell id="1" parent="0" />
        <mxCell id="dNxyNK7c78bLwvsdeMH5-11" value="Orgchart" style="swimlane;html=1;startSize=20;horizontal=1;containerType=tree;glass=0;" parent="1" vertex="1">
          <mxGeometry x="80" y="50" width="710" height="490" as="geometry" />
        </mxCell>
        <mxCell id="zpinlWs-LYQhtds4jSe4-1" value="myOS&lt;div style=&quot;text-align: justify;&quot;&gt;&lt;/div&gt;" style="rounded=1;whiteSpace=wrap;html=1;align=center;labelPosition=center;verticalLabelPosition=top;verticalAlign=bottom;" vertex="1" parent="dNxyNK7c78bLwvsdeMH5-11">
          <mxGeometry x="101.75" y="70" width="510" height="230" as="geometry" />
        </mxCell>
        <mxCell id="zpinlWs-LYQhtds4jSe4-5" value="myPrint[kf]" style="rounded=1;whiteSpace=wrap;html=1;" vertex="1" parent="dNxyNK7c78bLwvsdeMH5-11">
          <mxGeometry x="410" y="140" width="170" height="45" as="geometry" />
        </mxCell>
        <mxCell id="zpinlWs-LYQhtds4jSe4-6" value="Hardware" style="rounded=1;whiteSpace=wrap;html=1;labelPosition=left;verticalLabelPosition=middle;align=right;verticalAlign=middle;" vertex="1" parent="dNxyNK7c78bLwvsdeMH5-11">
          <mxGeometry x="100" y="320" width="510" height="60" as="geometry" />
        </mxCell>
        <mxCell id="zpinlWs-LYQhtds4jSe4-7" value="8259" style="rounded=1;whiteSpace=wrap;html=1;" vertex="1" parent="dNxyNK7c78bLwvsdeMH5-11">
          <mxGeometry x="110" y="325" width="90" height="50" as="geometry" />
        </mxCell>
        <mxCell id="zpinlWs-LYQhtds4jSe4-9" value="8253" style="rounded=1;whiteSpace=wrap;html=1;" vertex="1" parent="dNxyNK7c78bLwvsdeMH5-11">
          <mxGeometry x="210" y="325" width="90" height="50" as="geometry" />
        </mxCell>
        <mxCell id="zpinlWs-LYQhtds4jSe4-10" value="MEM" style="rounded=1;whiteSpace=wrap;html=1;" vertex="1" parent="dNxyNK7c78bLwvsdeMH5-11">
          <mxGeometry x="313.5" y="325" width="86.5" height="50" as="geometry" />
        </mxCell>
        <mxCell id="zpinlWs-LYQhtds4jSe4-12" value="UART" style="rounded=1;whiteSpace=wrap;html=1;" vertex="1" parent="dNxyNK7c78bLwvsdeMH5-11">
          <mxGeometry x="410" y="325" width="80" height="50" as="geometry" />
        </mxCell>
        <mxCell id="zpinlWs-LYQhtds4jSe4-14" value="VGA" style="rounded=1;whiteSpace=wrap;html=1;" vertex="1" parent="dNxyNK7c78bLwvsdeMH5-11">
          <mxGeometry x="500" y="325" width="90" height="50" as="geometry" />
        </mxCell>
        <mxCell id="zpinlWs-LYQhtds4jSe4-15" value="UART" style="rounded=1;whiteSpace=wrap;html=1;" vertex="1" parent="dNxyNK7c78bLwvsdeMH5-11">
          <mxGeometry x="410" y="200" width="80" height="45" as="geometry" />
        </mxCell>
        <mxCell id="zpinlWs-LYQhtds4jSe4-16" value="VGA" style="rounded=1;whiteSpace=wrap;html=1;" vertex="1" parent="dNxyNK7c78bLwvsdeMH5-11">
          <mxGeometry x="500" y="200" width="80" height="45" as="geometry" />
        </mxCell>
        <mxCell id="zpinlWs-LYQhtds4jSe4-17" value="IO" style="rounded=1;whiteSpace=wrap;html=1;" vertex="1" parent="dNxyNK7c78bLwvsdeMH5-11">
          <mxGeometry x="410" y="260" width="170" height="30" as="geometry" />
        </mxCell>
        <mxCell id="zpinlWs-LYQhtds4jSe4-18" value="格式化字符串处理" style="rounded=1;whiteSpace=wrap;html=1;" vertex="1" parent="dNxyNK7c78bLwvsdeMH5-11">
          <mxGeometry x="340" y="140" width="54" height="150" as="geometry" />
        </mxCell>
        <mxCell id="zpinlWs-LYQhtds4jSe4-19" value="动态内存检测和管理" style="rounded=1;whiteSpace=wrap;html=1;" vertex="1" parent="dNxyNK7c78bLwvsdeMH5-11">
          <mxGeometry x="200" y="230" width="120" height="60" as="geometry" />
        </mxCell>
        <mxCell id="zpinlWs-LYQhtds4jSe4-20" value="动态" style="rounded=1;whiteSpace=wrap;html=1;" vertex="1" parent="dNxyNK7c78bLwvsdeMH5-11">
          <mxGeometry x="200" y="155" width="120" height="60" as="geometry" />
        </mxCell>
      </root>
    </mxGraphModel>
  </diagram>
</mxfile>
